<svg id="Capa_1" enable-background="new 0 0 512 512" height="512" viewBox="0 0 512 512" width="512" xmlns="http://www.w3.org/2000/svg"><g><path d="" style="fill:none;stroke:#000;stroke-width:15;stroke-linecap:round;stroke-linejoin:round;stroke-miterlimit:10"/></g><g><g><path clip-rule="evenodd" d="m147.686 457.376c-12.987 0-23.642 10.629-23.642 23.651v18.513c0 2.716 2.243 4.96 4.959 4.96h298.995c2.715 0 4.929-2.244 4.929-4.96v-18.513c0-12.992-10.626-23.651-23.613-23.651h-11.983-237.691z" fill="#f3eae6" fill-rule="evenodd"/></g><g><path clip-rule="evenodd" d="m168.347 417.988c-7.733 3.838-8.707 10.275-8.707 16.623v22.765h237.691v-23.149c.089-7.795-2.184-8.415-5.815-10.127-11.629-5.551-19.953-12.549-25.295-20.344h-179.485c-5.608 5.994-12.043 11.043-18.389 14.232z" fill="#acacac" fill-rule="evenodd"/></g><g><path clip-rule="evenodd" d="m359.373 109.174 121.841 69.652c1.978 1.152 4.545.443 5.697-1.535l11.57-20.225c1.122-2.008.413-4.577-1.564-5.699l-121.841-69.682-14.05 11.899z" fill="#fea610" fill-rule="evenodd"/></g><g><path clip-rule="evenodd" d="m280.802 32.583-11.541 20.225c-1.151 2.008-.443 4.577 1.535 5.699l21.487 12.312 14.876-8.799.856-18.69-21.487-12.312c-2.007-1.122-4.575-.414-5.726 1.565z" fill="#fea610" fill-rule="evenodd"/></g><g><path clip-rule="evenodd" d="m28.472 246.825c-20.13 0-18.418 2.953-7.231 15.915 38.725 44.939 120.424 78.126 157.732 84.179l24.941-50.047-24.941-50.047z" fill="#acacac" fill-rule="evenodd"/></g><g><path clip-rule="evenodd" d="m178.973 220.96v36.258h280.695v-36.258c0-11.19-9.15-20.344-20.307-20.344h-240.081c-11.157 0-20.307 9.153-20.307 20.344z" fill="#acacac" fill-rule="evenodd"/></g><g><path clip-rule="evenodd" d="m22.953 264.688c39.374 43.935 119.244 76.266 156.02 82.231v-100.094h-19.215v54.653c0 9.773 1.8 16.889-7.822 14.911-33.175-6.85-92.502-26.633-128.983-51.701z" fill="#838383" fill-rule="evenodd"/></g><g><path clip-rule="evenodd" d="m431.451 204.278v25.865 16.682h28.217v-25.865c0-11.19-9.15-20.344-20.307-20.344h-8.235c.207 1.181.325 2.421.325 3.662z" fill="#838383" fill-rule="evenodd"/></g><g><path clip-rule="evenodd" d="m350.725 424.1c3.601 1.712 5.874 2.333 5.815 10.127v23.149h40.791v-23.149c.089-7.795-2.184-8.415-5.815-10.127-11.629-5.551-19.953-12.549-25.295-20.344h-27.273c1.211 3.308 3.572 15.974 11.777 20.344z" fill="#838383" fill-rule="evenodd"/></g><g><path clip-rule="evenodd" d="m368.494 457.376c13.016 0 23.642 10.659 23.642 23.651v18.513c0 2.716-2.243 4.96-4.959 4.96h40.82c2.715 0 4.929-2.244 4.929-4.96v-18.513c0-12.992-10.626-23.651-23.613-23.651h-11.983z" fill="#cdbeb9" fill-rule="evenodd"/></g><g><path clip-rule="evenodd" d="m178.973 346.919c35.803 5.787 26.535 36.672 7.763 56.838h179.485c-25.413-37.026 16.086-92.535 88.961-99.474 3.896-.384 4.427-.561 4.486-5.079v-52.38h-280.695z" fill="#f3eae6" fill-rule="evenodd"/></g><g><path clip-rule="evenodd" d="m426.935 287.601c-67.768 6.466-102.803 57.104-87.987 116.156h27.273c-25.413-37.026 16.086-92.535 88.961-99.474 3.896-.384 4.427-.561 4.486-5.079v-52.38h-28.217v35.697c-.089 4.519-.59 4.696-4.516 5.08z" fill="#cdbeb9" fill-rule="evenodd"/></g><g><path clip-rule="evenodd" d="m221.358 282.552v27.814c0 2.303 1.859 4.163 4.132 4.163h86.835c2.273 0 4.132-1.86 4.132-4.163v-27.814c0-2.303-1.86-4.163-4.132-4.163h-86.835c-2.273-.001-4.132 1.859-4.132 4.163z" fill="#fea610" fill-rule="evenodd"/></g><g><path clip-rule="evenodd" d="m291.93 282.552v27.814c0 2.303-1.859 4.163-4.162 4.163h24.557c2.273 0 4.132-1.86 4.132-4.163v-27.814c0-2.303-1.86-4.163-4.132-4.163h-24.557c2.302-.001 4.162 1.859 4.162 4.163z" fill="#fe7600" fill-rule="evenodd"/></g><g><path clip-rule="evenodd" d="m274.634 101.733c-2.656 4.636-1.033 10.6 3.601 13.257l50.206 28.729c4.663 2.657 10.626 1.033 13.253-3.602 17.031-29.792 34.061-59.584 51.062-89.376 2.656-4.636 1.033-10.6-3.601-13.257l-50.207-28.7c-4.663-2.657-10.626-1.033-13.253 3.602-17.03 29.793-34.06 59.555-51.061 89.347z" fill="#acacac" fill-rule="evenodd"/></g><g><path clip-rule="evenodd" d="m280.802 32.583-6.759 11.87c1.151-1.978 3.689-2.657 5.667-1.535l21.487 12.312 6.818-11.899-21.487-12.312c-2.007-1.123-4.575-.415-5.726 1.564z" fill="#fe7600" fill-rule="evenodd"/></g><g><path clip-rule="evenodd" d="m385.967 62.64 6.789-11.899c2.656-4.636 1.033-10.6-3.601-13.257l-50.207-28.7c-4.663-2.657-10.626-1.033-13.253 3.602l-6.789 11.84z" fill="#838383" fill-rule="evenodd"/></g><g><path clip-rule="evenodd" d="m375.076 81.685-6.789 11.899 121.841 69.652c1.978 1.152 2.686 3.691 1.564 5.699l6.789-11.87c1.122-2.008.413-4.577-1.564-5.699z" fill="#fe7600" fill-rule="evenodd"/></g><g><path d="m234.543 138.119c.978 3.244 3.955 5.337 7.178 5.337.717 0 1.446-.104 2.168-.321 3.966-1.195 6.211-5.38 5.016-9.346l-15.585-51.7c-1.195-3.966-5.382-6.213-9.346-5.016-3.966 1.195-6.211 5.38-5.016 9.346z"/><path d="m161.769 133.6 44.067 31.21c1.316.933 2.83 1.381 4.328 1.381 2.351 0 4.666-1.103 6.127-3.166 2.395-3.381 1.595-8.061-1.785-10.455l-44.067-31.21c-3.383-2.396-8.063-1.594-10.455 1.785-2.394 3.381-1.594 8.061 1.785 10.455z"/><path d="m312.325 270.889h-86.836c-6.414 0-11.632 5.232-11.632 11.663v27.813c0 6.431 5.218 11.663 11.632 11.663h86.836c6.414 0 11.632-5.232 11.632-11.663v-27.813c0-6.431-5.218-11.663-11.632-11.663zm-3.368 36.139h-80.1v-21.139h80.1z"/><path d="m439.361 193.116h-240.081c-15.333 0-27.806 12.49-27.806 27.843v18.365h-143.002c-10.641 0-19.023.529-22.072 7.188-3.144 6.867 2.287 13.16 9.159 21.122 38.896 45.138 120.448 79.863 162.073 86.665.083.015.167.028.251.04 16.226 2.665 17.378 10.228 17.757 12.718 1.313 8.623-4.714 21.018-13.79 31.015-.416.357-.789.761-1.117 1.2-4.693 4.933-10.112 9.198-15.72 11.997-12.874 6.389-12.874 18.704-12.874 23.341v15.28l-4.435-.014c-.024 0-.049 0-.074 0-8.248 0-16.026 3.229-21.909 9.099-5.918 5.904-9.177 13.735-9.177 22.051v18.512c0 6.871 5.589 12.461 12.458 12.461h298.966c6.87 0 12.459-5.59 12.459-12.461v-18.512c0-17.177-13.957-31.15-31.113-31.15h-4.484l-.001-15.564c.116-10.225-3.428-13.885-9.587-16.75l-.504-.235c-9.838-4.681-17.243-10.559-22.043-17.343-.184-.315-.387-.616-.613-.899-5.105-7.664-6.954-16.441-5.28-25.939 4.599-26.083 37.386-56.466 89.114-61.4 7.887-.777 11.145-4.383 11.251-12.543v-78.243c.001-15.353-12.474-27.844-27.806-27.844zm-267.888 144.656c-37.979-8.844-109.559-39.32-144.555-79.933-.765-.886-1.855-2.15-2.933-3.447 1.236-.042 2.716-.067 4.486-.067h143.001v83.447zm216.843 93.111.601.28c.244.113.533.248.785.371.07.478.145 1.315.129 2.693v15.649h-95.156c-4.143 0-7.5 3.357-7.5 7.5s3.357 7.5 7.5 7.5h114.639c8.885 0 16.113 7.245 16.113 16.15v15.974h-293.883v-15.973c0-4.303 1.694-8.363 4.77-11.432 3.051-3.043 7.068-4.718 11.31-4.718h.037 110.689c4.13 0 7.485-3.342 7.499-7.475.014-4.143-3.334-7.511-7.475-7.524l-91.235.062v-15.327c0-5.934 1.019-8.156 4.558-9.912 6.284-3.137 12.566-7.833 18.205-13.443h172.478c6.216 7.722 14.928 14.386 25.936 19.625zm-36.285-60.341c-1.602 9.082-.905 17.739 1.907 25.715h-152.025c6.418-10.28 10.067-21.531 8.556-31.456-1.073-7.054-5.685-18.894-23.996-23.927v-86.549h99.996c4.143 0 7.5-3.357 7.5-7.5s-3.357-7.5-7.5-7.5h-99.996v-18.365c0-7.082 5.745-12.844 12.806-12.844h240.081c7.062 0 12.807 5.762 12.807 12.844v18.365h-129.63c-4.143 0-7.5 3.357-7.5 7.5s3.357 7.5 7.5 7.5h129.63l.001 42.728c-58.373 6.38-94.511 41.58-100.137 73.489z"/><path d="m500.64 144.856-44.657-25.541c-3.597-2.057-8.178-.809-10.234 2.787s-.809 8.178 2.787 10.234l41.781 23.895-8.259 14.437-112.454-64.287 8.263-14.463 39.855 22.79c1.174.672 2.453.99 3.716.99 2.602 0 5.133-1.356 6.517-3.778 2.056-3.596.808-8.177-2.788-10.233l-39.86-22.793 13.956-24.426c4.717-8.232 1.856-18.771-6.387-23.498l-50.213-28.701c-4.01-2.285-8.669-2.868-13.124-1.642-4.424 1.218-8.1 4.073-10.356 8.041l-13.956 24.419-15.038-8.616c-5.553-3.103-12.67-1.157-15.9 4.393l-11.535 20.214c-1.556 2.716-1.957 5.876-1.129 8.899.825 3.014 2.768 5.518 5.443 7.036l15 8.595-13.942 24.395c-4.717 8.232-1.855 18.771 6.385 23.496l50.218 28.736c2.636 1.502 5.553 2.268 8.509 2.268 1.538 0 3.088-.208 4.613-.628 4.432-1.22 8.113-4.082 10.354-8.038l13.958-24.431 115.278 65.9c1.793 1.044 3.787 1.577 5.812 1.577 1.027 0 2.062-.138 3.084-.414 2.993-.813 5.499-2.733 7.083-5.455l11.607-20.291c3.131-5.602 1.152-12.726-4.387-15.867zm-223.227-91.202 8.263-14.481 12.107 6.938-8.273 14.475zm57.755 82.766c-.372.656-.974.905-1.299.994-.338.093-1.01.191-1.703-.204l-50.201-28.726c-1.043-.598-1.421-1.981-.82-3.029l33.338-58.333c.013-.022.028-.041.041-.063.013-.023.023-.047.036-.07l17.649-30.881c.005-.008.009-.016.014-.024.372-.656.974-.904 1.299-.994.148-.041.362-.083.614-.083.32 0 .703.067 1.093.29l50.198 28.693c1.042.599 1.42 1.982.819 3.031l-17.662 30.913c-.006.01-.012.018-.018.028s-.01.02-.015.03z"/></g></g></svg>