<svg id="_x33_0" enable-background="new 0 0 64 64" height="512" viewBox="0 0 64 64" width="512" xmlns="http://www.w3.org/2000/svg"><g><g><circle cx="44" cy="16" r="1"/></g><g><circle cx="52" cy="16" r="1"/></g><g><path d="m45.345 25h3.655c2.206 0 4-1.794 4-4h-2c0 1.103-.897 2-2 2h-3.655z"/></g><g><path d="m56.92 23h.08c3.309 0 6-2.691 6-6 0-1.775-.779-3.367-2.008-4.466-.082-6.373-5.285-11.534-11.677-11.534h-2.631c-6.374 0-11.564 5.133-11.674 11.531-.003.003-.007.006-.01.009v-8.54c0-1.654-1.346-3-3-3h-28c-1.654 0-3 1.346-3 3v16c0 1.654 1.346 3 3 3h12.586l3.293 3.293c.456.456 1.062.707 1.707.707 1.331 0 2.414-1.083 2.414-2.414v-1.586h8c1.221 0 2.269-.735 2.737-1.784.084.085.174.164.263.243v10.541c0 2.757 2.243 5 5 5h.381c-1.215 1.591-2.132 3.365-2.695 5.263l-10.611 13.06c-2.366.804-4.075 3.042-4.075 5.677h-12v-4h2c1.103 0 2-.897 2-2v-28c0-1.103-.897-2-2-2h-4c-1.103 0-2 .897-2 2v17.279l-2.582.861c-2.044.681-3.418 2.588-3.418 4.743v13.117h32.771.246 24.983v-15.129c1.28-2.046 2-4.448 2-6.971 0-4.871-3.539-8.922-8.179-9.74l-.629-2.516c2.482-.821 4.347-2.994 4.728-5.644zm-1.92-1c0 2.757-2.243 5-5 5h-4c-2.757 0-5-2.243-5-5v-8.117c0-1.293.824-2.437 2.051-2.846l1.347-.449c.884.972 2.119 1.625 3.505 1.74l7.097.592zm-13 13c-.551 0-1-.449-1-1s.449-1 1-1h2c.551 0 1 .449 1 1s-.449 1-1 1zm15-14v-8c2.206 0 4 1.794 4 4s-1.794 4-4 4zm-10.315-18h2.631c4.857 0 8.878 3.597 9.569 8.307-.594-.196-1.226-.307-1.885-.307h-.96l-.842-.07-.147-.098c-1.284-.856-2.051-2.289-2.051-3.832h-2c0 1.332.404 2.602 1.122 3.673l-1.433-.12c-1.058-.869-1.689-2.175-1.689-3.553h-2c0 1.175.326 2.31.902 3.305-1.639-.222-2.902-1.636-2.902-3.305h-2c0 .642.117 1.261.33 1.836l-.912.304c-1.038.346-1.901 1.01-2.501 1.86h-.917c-.661 0-1.296.112-1.891.31.671-4.69 4.703-8.31 9.576-8.31zm-7.685 10.883v7.117c-2.206 0-4-1.794-4-4s1.794-4 4-4h.084c-.051.288-.084.582-.084.883zm-6 6.117c0 .551-.449 1-1 1h-10v3.586c0 .338-.469.531-.707.293l-3.879-3.879h-13.414c-.551 0-1-.449-1-1v-16c0-.551.449-1 1-1h28c.551 0 1 .449 1 1zm6 14c0 .303.045.595.129.871-1.231-.374-2.129-1.519-2.129-2.871v-9.35c.627.223 1.298.35 2 .35h.08c.382 2.65 2.247 4.823 4.729 5.644l-.59 2.356h-1.219c-1.654 0-3 1.346-3 3zm-2 17.009-5.528 3.04c-.458.252-.855.578-1.199.951h-.36l7.124-8.767c-.012.25-.037.497-.037.749zm-28-24.009h4l.001 28h-4.001zm-6 22.883c0-1.293.824-2.437 2.051-2.846l1.949-.649v8.612c0 1.103.897 2 2 2v4h-6zm26 7.117h.164c-.106.396-.164.808-.164 1.229 0 1.035.34 1.988.903 2.771h-4.903c0-2.206 1.794-4 4-4zm4.771 4c-1.528 0-2.771-1.243-2.771-2.771 0-1.01.55-1.94 1.436-2.428l15.025-8.264c.792-.436 1.526-.947 2.23-1.493l4.66 3.883c-.316.224-.634.445-.976.637l-18.005 10.082c-.413.232-.881.354-1.354.354zm5.061 0 15.52-8.691c.976-.547 1.861-1.213 2.648-1.97v10.661zm20.168-20.034c0 2.893-1.151 5.618-3.109 7.642l-4.678-3.899c.588-.583 1.151-1.195 1.655-1.867l.932-1.242-1.6-1.2-.932 1.242c-1.287 1.716-2.893 3.11-4.771 4.144l-7.497 4.123v-2.926c0-3.751 1.425-7.275 4.001-9.982h.999c1.642 0 2.977-1.327 2.996-2.965.169-.085.332-.177.505-.256 1.138-.518 2.349-.78 3.6-.78 4.356 0 7.899 3.543 7.899 7.966zm-8.276-9.946c-1.404.049-2.766.355-4.051.939-.117.054-.228.118-.343.174-.298-.371-.674-.674-1.114-.87l.568-2.273c.072.001.143.01.216.01h4c.073 0 .144-.009.216-.011z"/></g><g><path d="m28 9c-1.654 0-3 1.346-3 3s1.346 3 3 3 3-1.346 3-3-1.346-3-3-3zm0 4c-.551 0-1-.449-1-1s.449-1 1-1 1 .449 1 1-.449 1-1 1z"/></g><g><path d="m18 9c-1.654 0-3 1.346-3 3s1.346 3 3 3 3-1.346 3-3-1.346-3-3-3zm0 4c-.551 0-1-.449-1-1s.449-1 1-1 1 .449 1 1-.449 1-1 1z"/></g><g><path d="m8 9c-1.654 0-3 1.346-3 3s1.346 3 3 3 3-1.346 3-3-1.346-3-3-3zm0 4c-.551 0-1-.449-1-1s.449-1 1-1 1 .449 1 1-.449 1-1 1z"/></g></g></svg>